<svg width="40" height="36" viewBox="0 0 40 36" fill="none" xmlns="http://www.w3.org/2000/svg">
<path d="M30.153 15.6497C30.153 12.7276 29.6289 9.91702 28.5876 7.30176C28.3807 7.39242 28.2151 7.47611 28.1048 7.5319C28.1048 7.5319 28.1048 7.5319 28.0979 7.5319C27.6221 7.77599 27.36 8.29905 27.4221 8.82907C27.5462 9.91702 27.6221 11.1863 27.6221 12.33C27.6221 17.6791 25.9117 22.8051 22.8152 26.7733C19.8843 30.5253 15.9533 32.9314 11.6775 33.6218C11.6913 33.6218 11.6982 33.6357 11.712 33.6427C14.2154 35.0863 17.2774 35.177 19.8567 33.8938C25.8979 30.888 30.153 23.8442 30.153 15.6497Z" fill="white"/>
<path d="M31.3324 6.75783C30.9324 6.74388 30.56 6.77177 30.2083 6.82757C31.2841 9.60323 31.8358 12.5672 31.8358 15.6497C31.8358 24.8345 26.7738 32.9942 19.3809 35.9651C19.7533 35.986 20.1326 36 20.5119 36C20.5326 36 20.5464 36 20.567 36C24.1256 35.986 27.5049 34.3402 29.7393 31.5436C32.5669 28.0008 34.3048 23.2305 34.3048 18C34.3048 13.9481 33.2772 10.0705 31.3324 6.75783Z" fill="white"/>
<path d="M38.3116 18C38.3116 15.5521 37.8289 13.2228 36.953 11.0957C36.5531 10.1193 35.9875 9.21271 35.2427 8.47346C34.8289 8.05502 34.3807 7.70632 33.8979 7.45525C33.7738 7.38551 33.6428 7.32972 33.5186 7.27393C35.1324 10.5238 35.9806 14.2131 35.9806 18C35.9806 23.3142 34.2703 28.4401 31.229 32.3665C35.5255 29.0818 38.3048 23.8652 38.3048 18H38.3116Z" fill="white"/>
<path d="M33.2841 5.46067C30.0496 2.09221 25.5256 0 20.5119 0C10.6706 0 2.60871 8.24332 2.71215 18.1883C2.73974 20.6222 3.23628 22.9376 4.12592 25.0508C3.83627 25.0089 3.53973 24.995 3.24318 25.0089C2.44319 25.0438 1.31907 24.7578 0.808734 24.6114C0.312191 24.4719 -0.156766 24.8834 0.0501272 25.3646C0.0501272 25.3646 0.0501272 25.3716 0.0501272 25.3785C1.81562 29.4723 5.73969 32.1364 9.47756 32.1294C9.47756 32.1294 9.47756 32.1294 9.48445 32.1294C9.73273 32.1294 9.981 32.1155 10.2293 32.0876C18.9877 31.4111 25.9394 22.8121 25.9394 12.3371C25.9394 11.6745 25.9118 11.019 25.8566 10.3634C25.829 10.0077 25.3738 9.87524 25.167 10.1612C22.7463 13.4041 19.1533 19.1019 14.6637 16.131C12.9396 14.9942 12.0154 12.5393 12.5327 10.0426C13.4706 5.55831 18.636 2.61527 20.9119 3.53584C21.0912 3.60558 21.7325 3.86362 21.9463 4.45641C22.2773 5.35606 21.2774 6.10228 20.767 7.69934C20.2153 9.4289 20.5257 11.2561 20.9119 11.3398C21.3394 11.4305 22.0705 9.82642 23.8566 8.36885C25.1532 7.30879 26.1325 7.01589 26.7462 5.89306C27.3393 4.81209 26.2842 3.64742 26.6428 3.54281C27.0083 3.4382 27.3393 4.7005 28.4083 5.32817C29.3048 5.85122 30.0979 5.52344 31.2703 5.47462C31.2703 5.47462 31.7737 5.4537 32.5737 5.57226C32.5737 5.57226 32.8013 5.60713 33.1668 5.68384C33.2979 5.71174 33.3806 5.55134 33.291 5.46067H33.2841ZM20.0153 19.339C20.1532 19.1856 20.4015 18.8927 20.8222 18.8439C20.905 18.8369 21.3325 18.795 21.6153 19.074C22.036 19.4785 21.9187 20.2596 21.5463 20.7129C21.2015 21.1313 20.5188 21.4033 20.0429 21.0895C19.6429 20.8245 19.6222 20.2735 19.6222 20.2247C19.6222 19.7923 19.8705 19.4994 20.0015 19.339H20.0153Z" fill="white"/>
</svg>
